<svg data-v-423bf9ae="" xmlns="http://www.w3.org/2000/svg" viewBox="0 0 679 90" class="iconLeft"><!----><!----><!----><g data-v-423bf9ae="" id="7bb05fa7-1f88-41ac-810c-700e871ba81c" fill="#ffffff" transform="matrix(4.559270569581267,0,0,4.559270569581267,102.09747338040137,0.592702939867813)"><path d="M7.53 8.50L7.53 8.50Q8.58 8.69 9.13 9.32L9.13 9.32L9.13 9.32Q9.69 9.95 9.69 10.96L9.69 10.96L9.69 10.96Q9.69 12.21 8.78 12.88L8.78 12.88L8.78 12.88Q7.87 13.55 6.08 13.55L6.08 13.55L1.71 13.55L1.71 3.75L5.80 3.75L5.80 3.75Q7.39 3.75 8.28 4.40L8.28 4.40L8.28 4.40Q9.17 5.05 9.17 6.26L9.17 6.26L9.17 6.26Q9.17 7.10 8.73 7.67L8.73 7.67L8.73 7.67Q8.29 8.25 7.53 8.50L7.53 8.50ZM5.77 4.37L2.42 4.37L2.42 8.27L5.77 8.27L5.77 8.27Q7.06 8.27 7.75 7.78L7.75 7.78L7.75 7.78Q8.44 7.28 8.44 6.31L8.44 6.31L8.44 6.31Q8.44 5.36 7.75 4.87L7.75 4.87L7.75 4.87Q7.06 4.37 5.77 4.37L5.77 4.37ZM6.08 12.94L6.08 12.94Q7.50 12.94 8.24 12.44L8.24 12.44L8.24 12.44Q8.97 11.94 8.97 10.91L8.97 10.91L8.97 10.91Q8.97 9.87 8.24 9.38L8.24 9.38L8.24 9.38Q7.50 8.89 6.08 8.89L6.08 8.89L2.42 8.89L2.42 12.94L6.08 12.94ZM17.71 6.24L18.41 6.24L18.41 13.55L17.74 13.55L17.74 11.98L17.74 11.98Q17.37 12.75 16.66 13.18L16.66 13.18L16.66 13.18Q15.95 13.61 14.98 13.61L14.98 13.61L14.98 13.61Q13.55 13.61 12.74 12.81L12.74 12.81L12.74 12.81Q11.93 12.01 11.93 10.51L11.93 10.51L11.93 6.24L12.63 6.24L12.63 10.46L12.63 10.46Q12.63 11.69 13.26 12.33L13.26 12.33L13.26 12.33Q13.89 12.98 15.04 12.98L15.04 12.98L15.04 12.98Q16.27 12.98 16.99 12.21L16.99 12.21L16.99 12.21Q17.71 11.44 17.71 10.14L17.71 10.14L17.71 6.24ZM27.17 3.16L27.87 3.16L27.87 13.55L27.19 13.55L27.19 11.83L27.19 11.83Q26.75 12.68 25.97 13.15L25.97 13.15L25.97 13.15Q25.19 13.61 24.19 13.61L24.19 13.61L24.19 13.61Q23.17 13.61 22.34 13.13L22.34 13.13L22.34 13.13Q21.52 12.66 21.05 11.82L21.05 11.82L21.05 11.82Q20.58 10.98 20.58 9.90L20.58 9.90L20.58 9.90Q20.58 8.82 21.05 7.97L21.05 7.97L21.05 7.97Q21.52 7.13 22.34 6.66L22.34 6.66L22.34 6.66Q23.17 6.19 24.19 6.19L24.19 6.19L24.19 6.19Q25.17 6.19 25.95 6.65L25.95 6.65L25.95 6.65Q26.73 7.11 27.17 7.94L27.17 7.94L27.17 3.16ZM24.23 12.98L24.23 12.98Q25.07 12.98 25.74 12.59L25.74 12.59L25.74 12.59Q26.40 12.19 26.79 11.49L26.79 11.49L26.79 11.49Q27.17 10.79 27.17 9.90L27.17 9.90L27.17 9.90Q27.17 9.00 26.79 8.30L26.79 8.30L26.79 8.30Q26.40 7.60 25.74 7.21L25.74 7.21L25.74 7.21Q25.07 6.82 24.23 6.82L24.23 6.82L24.23 6.82Q23.39 6.82 22.73 7.21L22.73 7.21L22.73 7.21Q22.06 7.60 21.68 8.30L21.68 8.30L21.68 8.30Q21.29 9.00 21.29 9.90L21.29 9.90L21.29 9.90Q21.29 10.79 21.68 11.49L21.68 11.49L21.68 11.49Q22.06 12.19 22.73 12.59L22.73 12.59L22.73 12.59Q23.39 12.98 24.23 12.98L24.23 12.98ZM36.74 6.24L37.41 6.24L37.41 12.77L37.41 12.77Q37.41 14.59 36.53 15.46L36.53 15.46L36.53 15.46Q35.64 16.32 33.87 16.32L33.87 16.32L33.87 16.32Q32.86 16.32 31.96 16.02L31.96 16.02L31.96 16.02Q31.07 15.71 30.52 15.16L30.52 15.16L30.90 14.63L30.90 14.63Q31.44 15.13 32.21 15.41L32.21 15.41L32.21 15.41Q32.98 15.69 33.85 15.69L33.85 15.69L33.85 15.69Q35.31 15.69 36.01 15.00L36.01 15.00L36.01 15.00Q36.71 14.31 36.71 12.85L36.71 12.85L36.71 11.62L36.71 11.62Q36.26 12.42 35.46 12.85L35.46 12.85L35.46 12.85Q34.66 13.29 33.67 13.29L33.67 13.29L33.67 13.29Q32.65 13.29 31.82 12.83L31.82 12.83L31.82 12.83Q30.98 12.38 30.51 11.56L30.51 11.56L30.51 11.56Q30.03 10.75 30.03 9.73L30.03 9.73L30.03 9.73Q30.03 8.71 30.51 7.90L30.51 7.90L30.51 7.90Q30.98 7.08 31.82 6.64L31.82 6.64L31.82 6.64Q32.65 6.19 33.67 6.19L33.67 6.19L33.67 6.19Q34.68 6.19 35.49 6.64L35.49 6.64L35.49 6.64Q36.30 7.08 36.74 7.90L36.74 7.90L36.74 6.24ZM33.73 12.66L33.73 12.66Q34.58 12.66 35.27 12.29L35.27 12.29L35.27 12.29Q35.95 11.91 36.34 11.25L36.34 11.25L36.34 11.25Q36.72 10.58 36.72 9.73L36.72 9.73L36.72 9.73Q36.72 8.88 36.34 8.22L36.34 8.22L36.34 8.22Q35.95 7.56 35.27 7.19L35.27 7.19L35.27 7.19Q34.58 6.82 33.73 6.82L33.73 6.82L33.73 6.82Q32.87 6.82 32.19 7.19L32.19 7.19L32.19 7.19Q31.51 7.56 31.13 8.22L31.13 8.22L31.13 8.22Q30.74 8.88 30.74 9.73L30.74 9.73L30.74 9.73Q30.74 10.58 31.13 11.25L31.13 11.25L31.13 11.25Q31.51 11.91 32.19 12.29L32.19 12.29L32.19 12.29Q32.87 12.66 33.73 12.66L33.73 12.66ZM46.56 9.87L46.55 10.07L40.26 10.07L40.26 10.07Q40.29 10.92 40.70 11.58L40.70 11.58L40.70 11.58Q41.10 12.25 41.80 12.61L41.80 12.61L41.80 12.61Q42.49 12.98 43.36 12.98L43.36 12.98L43.36 12.98Q44.07 12.98 44.68 12.72L44.68 12.72L44.68 12.72Q45.29 12.46 45.70 11.96L45.70 11.96L46.10 12.42L46.10 12.42Q45.63 12.99 44.91 13.30L44.91 13.30L44.91 13.30Q44.18 13.61 43.34 13.61L43.34 13.61L43.34 13.61Q42.25 13.61 41.40 13.13L41.40 13.13L41.40 13.13Q40.54 12.66 40.06 11.82L40.06 11.82L40.06 11.82Q39.58 10.98 39.58 9.90L39.58 9.90L39.58 9.90Q39.58 8.83 40.03 7.99L40.03 7.99L40.03 7.99Q40.49 7.14 41.29 6.66L41.29 6.66L41.29 6.66Q42.08 6.19 43.08 6.19L43.08 6.19L43.08 6.19Q44.07 6.19 44.86 6.66L44.86 6.66L44.86 6.66Q45.65 7.13 46.11 7.97L46.11 7.97L46.11 7.97Q46.56 8.81 46.56 9.87L46.56 9.87ZM43.08 6.80L43.08 6.80Q42.31 6.80 41.69 7.15L41.69 7.15L41.69 7.15Q41.08 7.49 40.71 8.11L40.71 8.11L40.71 8.11Q40.33 8.74 40.28 9.52L40.28 9.52L45.88 9.52L45.88 9.52Q45.84 8.74 45.46 8.12L45.46 8.12L45.46 8.12Q45.08 7.50 44.46 7.15L44.46 7.15L44.46 7.15Q43.85 6.80 43.08 6.80L43.08 6.80ZM52.07 12.60L52.36 13.09L52.36 13.09Q52.09 13.34 51.70 13.47L51.70 13.47L51.70 13.47Q51.30 13.61 50.86 13.61L50.86 13.61L50.86 13.61Q49.91 13.61 49.39 13.08L49.39 13.08L49.39 13.08Q48.87 12.56 48.87 11.62L48.87 11.62L48.87 6.85L47.53 6.85L47.53 6.24L48.87 6.24L48.87 4.65L49.57 4.65L49.57 6.24L51.90 6.24L51.90 6.85L49.57 6.85L49.57 11.55L49.57 11.55Q49.57 12.26 49.92 12.63L49.92 12.63L49.92 12.63Q50.26 13.01 50.93 13.01L50.93 13.01L50.93 13.01Q51.62 13.01 52.07 12.60L52.07 12.60ZM63.95 8.50L63.95 8.50Q65.00 8.69 65.56 9.32L65.56 9.32L65.56 9.32Q66.11 9.95 66.11 10.96L66.11 10.96L66.11 10.96Q66.11 12.21 65.20 12.88L65.20 12.88L65.20 12.88Q64.29 13.55 62.50 13.55L62.50 13.55L58.13 13.55L58.13 3.75L62.22 3.75L62.22 3.75Q63.81 3.75 64.70 4.40L64.70 4.40L64.70 4.40Q65.59 5.05 65.59 6.26L65.59 6.26L65.59 6.26Q65.59 7.10 65.15 7.67L65.15 7.67L65.15 7.67Q64.71 8.25 63.95 8.50L63.95 8.50ZM62.19 4.37L58.84 4.37L58.84 8.27L62.19 8.27L62.19 8.27Q63.48 8.27 64.17 7.78L64.17 7.78L64.17 7.78Q64.86 7.28 64.86 6.31L64.86 6.31L64.86 6.31Q64.86 5.36 64.17 4.87L64.17 4.87L64.17 4.87Q63.48 4.37 62.19 4.37L62.19 4.37ZM62.50 12.94L62.50 12.94Q63.92 12.94 64.66 12.44L64.66 12.44L64.66 12.44Q65.39 11.94 65.39 10.91L65.39 10.91L65.39 10.91Q65.39 9.87 64.66 9.38L64.66 9.38L64.66 9.38Q63.92 8.89 62.50 8.89L62.50 8.89L58.84 8.89L58.84 12.94L62.50 12.94ZM69.10 7.84L69.10 7.84Q69.44 7.04 70.15 6.61L70.15 6.61L70.15 6.61Q70.87 6.19 71.89 6.19L71.89 6.19L71.89 6.87L71.72 6.86L71.72 6.86Q70.50 6.86 69.82 7.62L69.82 7.62L69.82 7.62Q69.13 8.39 69.13 9.74L69.13 9.74L69.13 13.55L68.43 13.55L68.43 6.24L69.10 6.24L69.10 7.84ZM76.80 13.61L76.80 13.61Q75.77 13.61 74.94 13.13L74.94 13.13L74.94 13.13Q74.10 12.66 73.63 11.81L73.63 11.81L73.63 11.81Q73.15 10.96 73.15 9.90L73.15 9.90L73.15 9.90Q73.15 8.83 73.63 7.99L73.63 7.99L73.63 7.99Q74.10 7.14 74.94 6.66L74.94 6.66L74.94 6.66Q75.77 6.19 76.80 6.19L76.80 6.19L76.80 6.19Q77.84 6.19 78.67 6.66L78.67 6.66L78.67 6.66Q79.51 7.14 79.98 7.99L79.98 7.99L79.98 7.99Q80.46 8.83 80.46 9.90L80.46 9.90L80.46 9.90Q80.46 10.96 79.98 11.81L79.98 11.81L79.98 11.81Q79.51 12.66 78.67 13.13L78.67 13.13L78.67 13.13Q77.84 13.61 76.80 13.61L76.80 13.61ZM76.80 12.98L76.80 12.98Q77.64 12.98 78.31 12.59L78.31 12.59L78.31 12.59Q78.97 12.19 79.36 11.49L79.36 11.49L79.36 11.49Q79.74 10.79 79.74 9.90L79.74 9.90L79.74 9.90Q79.74 9.00 79.36 8.30L79.36 8.30L79.36 8.30Q78.97 7.60 78.31 7.21L78.31 7.21L78.31 7.21Q77.64 6.82 76.80 6.82L76.80 6.82L76.80 6.82Q75.96 6.82 75.30 7.21L75.30 7.21L75.30 7.21Q74.63 7.60 74.25 8.30L74.25 8.30L74.25 8.30Q73.86 9.00 73.86 9.90L73.86 9.90L73.86 9.90Q73.86 10.79 74.25 11.49L74.25 11.49L74.25 11.49Q74.63 12.19 75.30 12.59L75.30 12.59L75.30 12.59Q75.96 12.98 76.80 12.98L76.80 12.98ZM85.09 6.19L85.09 6.19Q86.45 6.19 87.18 6.88L87.18 6.88L87.18 6.88Q87.91 7.57 87.91 8.92L87.91 8.92L87.91 13.55L87.23 13.55L87.23 12.25L87.23 12.25Q86.88 12.89 86.21 13.25L86.21 13.25L86.21 13.25Q85.54 13.61 84.60 13.61L84.60 13.61L84.60 13.61Q83.38 13.61 82.68 13.03L82.68 13.03L82.68 13.03Q81.97 12.46 81.97 11.52L81.97 11.52L81.97 11.52Q81.97 10.61 82.62 10.04L82.62 10.04L82.62 10.04Q83.27 9.48 84.70 9.48L84.70 9.48L87.21 9.48L87.21 8.89L87.21 8.89Q87.21 7.87 86.65 7.34L86.65 7.34L86.65 7.34Q86.10 6.80 85.04 6.80L85.04 6.80L85.04 6.80Q84.31 6.80 83.64 7.06L83.64 7.06L83.64 7.06Q82.98 7.31 82.52 7.73L82.52 7.73L82.17 7.22L82.17 7.22Q82.71 6.73 83.48 6.46L83.48 6.46L83.48 6.46Q84.25 6.19 85.09 6.19L85.09 6.19ZM84.70 13.03L84.70 13.03Q85.61 13.03 86.25 12.61L86.25 12.61L86.25 12.61Q86.88 12.19 87.21 11.40L87.21 11.40L87.21 10.02L84.71 10.02L84.71 10.02Q83.64 10.02 83.15 10.42L83.15 10.42L83.15 10.42Q82.67 10.81 82.67 11.49L82.67 11.49L82.67 11.49Q82.67 12.21 83.20 12.62L83.20 12.62L83.20 12.62Q83.73 13.03 84.70 13.03L84.70 13.03ZM96.59 3.16L97.29 3.16L97.29 13.55L96.60 13.55L96.60 11.83L96.60 11.83Q96.17 12.68 95.38 13.15L95.38 13.15L95.38 13.15Q94.60 13.61 93.60 13.61L93.60 13.61L93.60 13.61Q92.58 13.61 91.76 13.13L91.76 13.13L91.76 13.13Q90.93 12.66 90.46 11.82L90.46 11.82L90.46 11.82Q89.99 10.98 89.99 9.90L89.99 9.90L89.99 9.90Q89.99 8.82 90.46 7.97L90.46 7.97L90.46 7.97Q90.93 7.13 91.76 6.66L91.76 6.66L91.76 6.66Q92.58 6.19 93.60 6.19L93.60 6.19L93.60 6.19Q94.58 6.19 95.36 6.65L95.36 6.65L95.36 6.65Q96.14 7.11 96.59 7.94L96.59 7.94L96.59 3.16ZM93.65 12.98L93.65 12.98Q94.49 12.98 95.15 12.59L95.15 12.59L95.15 12.59Q95.82 12.19 96.20 11.49L96.20 11.49L96.20 11.49Q96.59 10.79 96.59 9.90L96.59 9.90L96.59 9.90Q96.59 9.00 96.20 8.30L96.20 8.30L96.20 8.30Q95.82 7.60 95.15 7.21L95.15 7.21L95.15 7.21Q94.49 6.82 93.65 6.82L93.65 6.82L93.65 6.82Q92.81 6.82 92.14 7.21L92.14 7.21L92.14 7.21Q91.48 7.60 91.09 8.30L91.09 8.30L91.09 8.30Q90.71 9.00 90.71 9.90L90.71 9.90L90.71 9.90Q90.71 10.79 91.09 11.49L91.09 11.49L91.09 11.49Q91.48 12.19 92.14 12.59L92.14 12.59L92.14 12.59Q92.81 12.98 93.65 12.98L93.65 12.98ZM110.04 6.24L110.68 6.24L107.91 13.55L107.25 13.55L104.79 7.21L102.31 13.55L101.67 13.55L98.90 6.24L99.57 6.24L102.00 12.77L104.50 6.24L105.10 6.24L107.58 12.75L110.04 6.24ZM114.77 6.19L114.77 6.19Q116.13 6.19 116.86 6.88L116.86 6.88L116.86 6.88Q117.59 7.57 117.59 8.92L117.59 8.92L117.59 13.55L116.91 13.55L116.91 12.25L116.91 12.25Q116.56 12.89 115.89 13.25L115.89 13.25L115.89 13.25Q115.22 13.61 114.28 13.61L114.28 13.61L114.28 13.61Q113.06 13.61 112.36 13.03L112.36 13.03L112.36 13.03Q111.65 12.46 111.65 11.52L111.65 11.52L111.65 11.52Q111.65 10.61 112.30 10.04L112.30 10.04L112.30 10.04Q112.95 9.48 114.38 9.48L114.38 9.48L116.89 9.48L116.89 8.89L116.89 8.89Q116.89 7.87 116.33 7.34L116.33 7.34L116.33 7.34Q115.78 6.80 114.72 6.80L114.72 6.80L114.72 6.80Q113.99 6.80 113.32 7.06L113.32 7.06L113.32 7.06Q112.66 7.31 112.20 7.73L112.20 7.73L111.85 7.22L111.85 7.22Q112.39 6.73 113.16 6.46L113.16 6.46L113.16 6.46Q113.93 6.19 114.77 6.19L114.77 6.19ZM114.38 13.03L114.38 13.03Q115.29 13.03 115.93 12.61L115.93 12.61L115.93 12.61Q116.56 12.19 116.89 11.40L116.89 11.40L116.89 10.02L114.39 10.02L114.39 10.02Q113.32 10.02 112.83 10.42L112.83 10.42L112.83 10.42Q112.35 10.81 112.35 11.49L112.35 11.49L112.35 11.49Q112.35 12.21 112.88 12.62L112.88 12.62L112.88 12.62Q113.41 13.03 114.38 13.03L114.38 13.03ZM125.62 6.24L126.34 6.24L122.58 14.55L122.58 14.55Q122.16 15.51 121.61 15.92L121.61 15.92L121.61 15.92Q121.06 16.32 120.30 16.32L120.30 16.32L120.30 16.32Q119.80 16.32 119.36 16.16L119.36 16.16L119.36 16.16Q118.92 15.99 118.61 15.67L118.61 15.67L118.96 15.13L118.96 15.13Q119.52 15.71 120.32 15.71L120.32 15.71L120.32 15.71Q120.85 15.71 121.23 15.41L121.23 15.41L121.23 15.41Q121.60 15.12 121.93 14.41L121.93 14.41L122.32 13.52L119.03 6.24L119.77 6.24L122.70 12.78L125.62 6.24Z"></path></g><!----><g data-v-423bf9ae="" id="161403b1-76da-431f-a0ed-b56c621b11a5" transform="matrix(1.2189832485491063,0,0,1.2189832485491063,-8.486722265840832,-9.788649792793485)" stroke="none" fill="#00A3DD"><path d="M78.557 9.119c-1.851-1.107-3.891-.851-5.079.631-1.44 1.782-4.526 7.055-4.688 7.334L44.116 46.367 19.412 17.05c-.02-.023-.047-.032-.067-.054-.041-.064-.059-.144-.103-.205-.017-.03-.017-.064-.033-.093-.134-.223-3.306-5.457-4.772-7.227-1.251-1.51-3.379-1.729-5.298-.545-1.765 1.089-2.533 2.899-1.873 4.395.411.947 2.839 5.503 3.728 7.161 1.316 6.519 10.173 49.104 11.246 54.262.039.192.115.365.214.521C24.216 79.688 34.202 82 44.107 82c9.873 0 19.828-2.297 21.636-6.693.114-.167.207-.352.25-.562 1.096-5.267 10.298-49.509 11.312-54.606 1.057-2.046 2.896-5.63 3.245-6.458.665-1.553-.174-3.471-1.993-4.562zm-4.436 10.348l-.315.61c-.017.029-.015.063-.027.094-.334.265-.845.379-1.358.222-.413-.126-.755-.395-.937-.738-.093-.177-.185-.449-.092-.751.135-.442.611-.738 1.183-.738.167 0 .334.025.506.077.412.126.754.394.936.736.061.121.101.296.104.488zm-5.066 2.171a4.745 4.745 0 0 0 3.869 1.97c.17 0 .321-.057.487-.073-1.906 9.269-6.457 31.171-9.584 46.22L46.169 48.801l22.886-27.163zM57.692 67.345c-3.911-1.071-8.759-1.621-13.585-1.621-4.813 0-9.649.545-13.555 1.613l13.565-16.1 13.575 16.108zm-33.283 2.413c-3.131-15.052-7.68-36.957-9.589-46.224.166.018.319.074.489.074a4.741 4.741 0 0 0 3.867-1.969l22.89 27.162-17.657 20.957zm-9.25-51.517c.166-.05.333-.075.499-.075.571 0 1.046.295 1.18.738a.977.977 0 0 1-.093.753c-.181.341-.521.61-.934.736-.733.223-1.51-.09-1.685-.664a.977.977 0 0 1 .091-.753c.181-.339.523-.607.942-.735zm28.948 60.621c-12.175 0-18.818-3.305-18.818-5.002 0-.197.099-.418.276-.65.031-.031.074-.043.103-.077l.262-.31c1.92-1.735 8.178-3.961 18.177-3.961 10.32 0 16.645 2.37 18.34 4.126l.122.145c.017.019.041.025.057.044.196.245.298.477.298.684 0 1.697-6.642 5.001-18.817 5.001z"></path></g><!----></svg>